<?xml version="1.0" standalone="no"?>
<!DOCTYPE svg PUBLIC "-//W3C//DTD SVG 20010904//EN"
 "http://www.w3.org/TR/2001/REC-SVG-20010904/DTD/svg10.dtd">
<svg version="1.0" xmlns="http://www.w3.org/2000/svg"
 width="512.000000pt" height="512.000000pt" viewBox="0 0 512.000000 512.000000"
 preserveAspectRatio="xMidYMid meet">
<metadata>
Created by potrace 1.14, written by Peter Selinger 2001-2017
</metadata>
<g transform="translate(0.000000,512.000000) scale(0.100000,-0.100000)"
fill="#000000" stroke="none">
<path d="M1775 4866 c-72 -33 -95 -83 -95 -211 l0 -94 -158 -3 c-157 -3 -159
-3 -208 -33 -30 -19 -60 -49 -79 -79 l-30 -49 -3 -893 -2 -893 -38 -7 c-53
-10 -166 -51 -246 -90 -232 -115 -422 -303 -538 -533 -44 -88 -89 -213 -103
-286 -20 -106 -25 -151 -26 -245 -1 -224 53 -424 165 -614 62 -104 93 -145
190 -242 217 -219 518 -346 826 -346 95 -1 216 8 230 17 3 2 22 6 44 9 166 26
408 156 561 299 l70 66 1171 1 c1276 0 1224 -2 1287 56 15 14 40 44 55 66 l27
42 0 1796 0 1797 -30 49 c-19 30 -49 60 -79 79 -49 30 -51 30 -207 33 l-157 3
-4 109 c-3 90 -7 114 -24 136 -63 84 -166 97 -243 30 -39 -34 -51 -77 -51
-181 l0 -95 -239 0 -239 0 -4 109 c-3 105 -5 111 -34 148 -56 69 -151 81 -220
28 -51 -39 -64 -78 -64 -190 l0 -95 -239 0 -239 0 -3 108 c-4 101 -6 112 -32
145 -34 45 -55 57 -111 63 -57 7 -106 -14 -142 -62 -27 -35 -29 -44 -32 -146
l-4 -108 -238 0 -238 0 -4 109 c-4 118 -13 141 -69 183 -33 25 -115 32 -154
14z"/>
</g>
</svg>
